<svg xmlns="http://www.w3.org/2000/svg" viewBox="0 0 53.5 57.38"><defs><style>.cls-1{fill:#7FAAFF;}.cls-2{fill:#022d4d;}</style></defs><g id="Layer_2" data-name="Layer 2"><g id="Layer_1-2" data-name="Layer 1"><rect class="cls-1" width="36" height="36"/><path class="cls-2" d="M29.9,29.06h4.72v4.72H29.9Zm-4.72,4.72H29.9V38.5H25.18Zm9.44,0h4.72V38.5H34.62Zm4.72-4.72h4.72v4.72H39.34Zm-18.88,0h4.72v4.72H20.46ZM48.78,14.9h-33A4.74,4.74,0,0,0,11,19.62v33a4.74,4.74,0,0,0,4.72,4.72H48.78a4.73,4.73,0,0,0,4.72-4.72v-33A4.73,4.73,0,0,0,48.78,14.9ZM25.18,50.3H20.46V45.58h4.72Zm9.44,0H29.9V45.58h4.72Zm9.44,0H39.34V45.58h4.72Zm4.72-16.52H44.06V38.5h4.72v4.72H44.06V38.5H39.34v4.72H34.62V38.5H29.9v4.72H25.18V38.5H20.46v4.72H15.73V38.5h4.73V33.78H15.73V19.62H48.78Z"/></g></g></svg>