<svg width="33" height="32" viewBox="0 0 33 32" fill="none" xmlns="http://www.w3.org/2000/svg">
<path d="M29.3333 0H3.66667C1.64083 0 0 1.59111 0 3.55556V28.4444C0 30.4089 1.64083 32 3.66667 32H17.6385V19.6249H13.343V14.7804H17.6385V11.216C17.6385 7.08444 20.2437 4.832 24.046 4.832C25.3275 4.82844 26.6072 4.89244 27.8813 5.01867V9.33867H25.2633C23.1917 9.33867 22.7883 10.288 22.7883 11.6889V14.7733H27.7383L27.0948 19.6178H22.759V32H29.3333C31.3592 32 33 30.4089 33 28.4444V3.55556C33 1.59111 31.3592 0 29.3333 0Z" fill="white"/>
</svg>
