<?xml version="1.0" encoding="utf-8"?>
<!-- Generator: Adobe Illustrator 24.3.0, SVG Export Plug-In . SVG Version: 6.00 Build 0)  -->
<svg version="1.1" id="Layer_1" xmlns="http://www.w3.org/2000/svg" xmlns:xlink="http://www.w3.org/1999/xlink" x="0px" y="0px"
	 viewBox="0 0 149.9 22" style="enable-background:new 0 0 149.9 22;" xml:space="preserve">
<style type="text/css">
	.st0{fill:#FFFFFF;}
</style>
<g id="Layer_2_1_">
	<g id="Layer_1-2">
		<path class="st0" d="M25.2,0H2.8C1.3,0,0,1.2,0,2.7c0,0,0,0,0,0v16.5C0,20.8,1.3,22,2.8,22c0,0,0,0,0,0h22.4
			c1.5,0,2.8-1.2,2.8-2.7c0,0,0,0,0,0V2.8C28,1.2,26.7,0,25.2,0C25.2,0,25.2,0,25.2,0z M25.2,19.2H2.8V11h22.4V19.2z M25.2,5.5H2.8
			V2.8h22.4V5.5z"/>
		<path class="st0" d="M43.2,8c-0.3-0.6-0.8-1-1.3-1.3c-0.6-0.3-1.3-0.5-2-0.4c-1.2-0.1-2.4,0.4-3.2,1.3c-0.8,1-1.3,2.2-1.2,3.5
			c-0.1,1.3,0.4,2.6,1.2,3.6c0.9,0.9,2.2,1.4,3.5,1.3c0.9,0,1.8-0.2,2.5-0.8c0.7-0.6,1.3-1.3,1.5-2.2h-5.2v-3h8.9v3.8
			c-0.7,2.2-2.2,4-4.3,5c-1.2,0.6-2.5,0.8-3.8,0.8c-1.6,0-3.1-0.3-4.5-1.1c-1.3-0.7-2.3-1.7-3-3c-0.7-1.4-1.1-2.9-1.1-4.4
			c0-1.5,0.3-3.1,1.1-4.4c0.7-1.3,1.7-2.3,3-3c1.4-0.8,2.9-1.1,4.4-1.1C41.7,2.5,43.5,3,45,4c1.4,1,2.4,2.4,2.8,4H43.2z M54.5,2.7
			v16.9h-4.1V2.7L54.5,2.7z M68.4,2.7V6h-6.9v3.6h5.1v3.2h-5.1v6.8h-4.1V2.7L68.4,2.7z M82.7,2.7V6h-4.5v13.6h-4.1V6h-4.5V2.7
			L82.7,2.7z M89.2,11.1c0-1.5,0.3-3,1-4.4c0.7-1.3,1.7-2.3,3-3c1.3-0.8,2.9-1.1,4.4-1.1c1.8-0.1,3.6,0.5,5.1,1.6
			c1.4,1.1,2.4,2.6,2.9,4.3h-4.5c-0.3-0.7-0.8-1.2-1.4-1.6c-0.6-0.4-1.3-0.6-2.1-0.6c-1.2,0-2.3,0.4-3.1,1.3c-0.8,1-1.2,2.2-1.2,3.5
			c-0.1,1.3,0.4,2.5,1.2,3.5c0.8,0.9,1.9,1.4,3.1,1.3c0.7,0,1.5-0.2,2.1-0.6c0.6-0.4,1.1-0.9,1.4-1.6h4.5c-0.4,1.7-1.4,3.3-2.9,4.3
			c-1.5,1.1-3.3,1.6-5.1,1.6c-1.5,0-3-0.4-4.4-1.1c-1.3-0.7-2.3-1.7-3-3C89.5,14.2,89.1,12.7,89.2,11.1L89.2,11.1z M112.2,16.4h5.4
			v3.2h-9.5V2.7h4.1V16.4z M123.6,2.7v10.1c-0.1,0.8,0.2,1.7,0.7,2.3c0.6,0.6,1.4,0.9,2.2,0.8c0.8,0.1,1.6-0.2,2.2-0.8
			c0.5-0.6,0.8-1.5,0.8-2.3V2.7h4.1v10c0,1.3-0.3,2.7-1,3.8c-0.6,1-1.5,1.9-2.6,2.4c-2.3,1-4.9,1-7.2,0c-1-0.5-1.9-1.3-2.5-2.4
			c-0.6-1.2-1-2.5-0.9-3.8v-10L123.6,2.7z M146.7,10.9c0.9,0.2,1.8,0.7,2.3,1.5c0.6,0.7,0.9,1.7,0.9,2.6c0.1,1.3-0.5,2.5-1.5,3.4
			c-1.2,0.9-2.6,1.3-4.1,1.2h-7.9V2.7h7.5c1.4-0.1,2.8,0.3,4,1.2c1,0.8,1.5,2,1.5,3.2c0,0.9-0.3,1.8-0.8,2.5
			C148.2,10.2,147.5,10.7,146.7,10.9z M140.6,9.5h2.7c0.5,0,1.1-0.1,1.5-0.4c0.4-0.3,0.6-0.8,0.6-1.3c0-0.5-0.2-1-0.6-1.3
			c-0.4-0.3-1-0.5-1.5-0.5h-2.7V9.5z M143.6,16.2c0.6,0,1.1-0.1,1.6-0.4c0.4-0.3,0.6-0.8,0.6-1.4c0-0.5-0.2-1-0.6-1.4
			c-0.5-0.4-1-0.5-1.6-0.5h-3v3.7H143.6z"/>
	</g>
</g>
</svg>
