<svg width="637" height="637" viewBox="0 0 637 637" fill="none" xmlns="http://www.w3.org/2000/svg">
<path fill-rule="evenodd" clip-rule="evenodd" d="M318.5 3L541.592 95.4078L634 318.5L541.592 541.592L318.5 634L95.4078 541.592L3 318.5L95.4078 95.4078L318.5 3Z" fill="#DE0909" fill-opacity="0.7" stroke="#DE0909" stroke-width="4"/>
<path fill-rule="evenodd" clip-rule="evenodd" d="M318.5 81.874L485.819 151.18L555.125 318.499L485.819 485.818L318.5 555.124L151.181 485.818L81.875 318.499L151.181 151.18L318.5 81.874Z" fill="#00CBD8" fill-opacity="0.7" stroke="#00CBD8" stroke-width="4"/>
<path fill-rule="evenodd" clip-rule="evenodd" d="M318.5 160.75L430.046 206.954L476.25 318.5L430.046 430.046L318.5 476.25L206.954 430.046L160.75 318.5L206.954 206.954L318.5 160.75Z" fill="#DCAB00" fill-opacity="0.7" stroke="#DCAB00" stroke-width="4"/>
<path fill-rule="evenodd" clip-rule="evenodd" d="M291.375 251.938C309.231 244.542 329.293 244.542 347.148 251.938C365.004 259.334 379.19 273.52 386.586 291.375C393.982 309.231 393.982 329.293 386.586 347.149C379.19 365.004 365.004 379.19 347.148 386.586C329.293 393.982 309.231 393.982 291.375 386.586C273.52 379.19 259.334 365.004 251.938 347.148C244.542 329.293 244.542 309.231 251.938 291.375C259.334 273.52 273.52 259.334 291.375 251.938Z" fill="#006FD6" fill-opacity="0.7" stroke="#006FD6" stroke-width="4"/>
</svg>
