<svg width="630" height="468" viewBox="0 0 630 468" fill="none" xmlns="http://www.w3.org/2000/svg">
<path d="M609 234C609 363.235 504.347 468 375.251 468C246.155 468 399.561 367.38 141.502 234C-116.557 100.62 246.155 0 375.251 0C504.347 0 609 104.765 609 234Z" fill="url(#paint0_linear)"/>
<rect x="113.25" y="19.25" width="402.5" height="365.5" rx="14.75" fill="#FEFEFE" stroke="#9D9D9E" stroke-width="0.5"/>
<g filter="url(#filter0_d)">
<rect x="50" y="55" width="530" height="284" rx="15" fill="white"/>
</g>
<circle cx="490" cy="151" r="47" fill="#5F95FF"/>
<path d="M494.364 152C499.788 152 504.182 147.525 504.182 142C504.182 136.475 499.788 132 494.364 132C488.939 132 484.545 136.475 484.545 142C484.545 147.525 488.939 152 494.364 152ZM472.273 147V139.5H467.364V147H460V152H467.364V159.5H472.273V152H479.636V147H472.273ZM494.364 157C487.81 157 474.727 160.35 474.727 167V172H514V167C514 160.35 500.917 157 494.364 157Z" fill="white"/>
<path d="M100.296 174L96.6 167.472H95.016V174H91.656V157.248H97.944C99.24 157.248 100.344 157.48 101.256 157.944C102.168 158.392 102.848 159.008 103.296 159.792C103.76 160.56 103.992 161.424 103.992 162.384C103.992 163.488 103.672 164.488 103.032 165.384C102.392 166.264 101.44 166.872 100.176 167.208L104.184 174H100.296ZM95.016 164.952H97.824C98.736 164.952 99.416 164.736 99.864 164.304C100.312 163.856 100.536 163.24 100.536 162.456C100.536 161.688 100.312 161.096 99.864 160.68C99.416 160.248 98.736 160.032 97.824 160.032H95.016V164.952ZM119.391 167.064C119.391 167.544 119.359 167.976 119.295 168.36H109.575C109.655 169.32 109.991 170.072 110.583 170.616C111.175 171.16 111.903 171.432 112.767 171.432C114.015 171.432 114.903 170.896 115.431 169.824H119.055C118.671 171.104 117.935 172.16 116.847 172.992C115.759 173.808 114.423 174.216 112.839 174.216C111.559 174.216 110.407 173.936 109.383 173.376C108.375 172.8 107.583 171.992 107.007 170.952C106.447 169.912 106.167 168.712 106.167 167.352C106.167 165.976 106.447 164.768 107.007 163.728C107.567 162.688 108.351 161.888 109.359 161.328C110.367 160.768 111.527 160.488 112.839 160.488C114.103 160.488 115.231 160.76 116.223 161.304C117.231 161.848 118.007 162.624 118.551 163.632C119.111 164.624 119.391 165.768 119.391 167.064ZM115.911 166.104C115.895 165.24 115.583 164.552 114.975 164.04C114.367 163.512 113.623 163.248 112.743 163.248C111.911 163.248 111.207 163.504 110.631 164.016C110.071 164.512 109.727 165.208 109.599 166.104H115.911ZM127.052 160.488C128.044 160.488 128.916 160.688 129.668 161.088C130.42 161.472 131.012 161.976 131.444 162.6V160.704H134.828V174.096C134.828 175.328 134.58 176.424 134.084 177.384C133.588 178.36 132.844 179.128 131.852 179.688C130.86 180.264 129.66 180.552 128.252 180.552C126.364 180.552 124.812 180.112 123.596 179.232C122.396 178.352 121.716 177.152 121.556 175.632H124.892C125.068 176.24 125.444 176.72 126.02 177.072C126.612 177.44 127.324 177.624 128.156 177.624C129.132 177.624 129.924 177.328 130.532 176.736C131.14 176.16 131.444 175.28 131.444 174.096V172.032C131.012 172.656 130.412 173.176 129.644 173.592C128.892 174.008 128.028 174.216 127.052 174.216C125.932 174.216 124.908 173.928 123.98 173.352C123.052 172.776 122.316 171.968 121.771 170.928C121.243 169.872 120.979 168.664 120.979 167.304C120.979 165.96 121.243 164.768 121.771 163.728C122.316 162.688 123.044 161.888 123.956 161.328C124.884 160.768 125.916 160.488 127.052 160.488ZM131.444 167.352C131.444 166.536 131.284 165.84 130.964 165.264C130.644 164.672 130.212 164.224 129.668 163.92C129.124 163.6 128.54 163.44 127.916 163.44C127.292 163.44 126.716 163.592 126.188 163.896C125.66 164.2 125.228 164.648 124.892 165.24C124.572 165.816 124.412 166.504 124.412 167.304C124.412 168.104 124.572 168.808 124.892 169.416C125.228 170.008 125.66 170.464 126.188 170.784C126.732 171.104 127.308 171.264 127.916 171.264C128.54 171.264 129.124 171.112 129.668 170.808C130.212 170.488 130.644 170.04 130.964 169.464C131.284 168.872 131.444 168.168 131.444 167.352ZM139.813 159.12C139.221 159.12 138.725 158.936 138.325 158.568C137.941 158.184 137.749 157.712 137.749 157.152C137.749 156.592 137.941 156.128 138.325 155.76C138.725 155.376 139.221 155.184 139.813 155.184C140.405 155.184 140.893 155.376 141.277 155.76C141.677 156.128 141.877 156.592 141.877 157.152C141.877 157.712 141.677 158.184 141.277 158.568C140.893 158.936 140.405 159.12 139.813 159.12ZM141.469 160.704V174H138.109V160.704H141.469ZM149.877 174.216C148.789 174.216 147.813 174.024 146.949 173.64C146.085 173.24 145.397 172.704 144.885 172.032C144.389 171.36 144.117 170.616 144.069 169.8H147.453C147.517 170.312 147.765 170.736 148.197 171.072C148.645 171.408 149.197 171.576 149.853 171.576C150.493 171.576 150.989 171.448 151.341 171.192C151.709 170.936 151.893 170.608 151.893 170.208C151.893 169.776 151.669 169.456 151.221 169.248C150.789 169.024 150.093 168.784 149.133 168.528C148.141 168.288 147.325 168.04 146.685 167.784C146.061 167.528 145.517 167.136 145.053 166.608C144.605 166.08 144.381 165.368 144.381 164.472C144.381 163.736 144.589 163.064 145.005 162.456C145.437 161.848 146.045 161.368 146.829 161.016C147.629 160.664 148.565 160.488 149.637 160.488C151.221 160.488 152.485 160.888 153.429 161.688C154.373 162.472 154.893 163.536 154.989 164.88H151.773C151.725 164.352 151.501 163.936 151.101 163.632C150.717 163.312 150.197 163.152 149.541 163.152C148.933 163.152 148.461 163.264 148.125 163.488C147.805 163.712 147.645 164.024 147.645 164.424C147.645 164.872 147.869 165.216 148.317 165.456C148.765 165.68 149.461 165.912 150.405 166.152C151.365 166.392 152.157 166.64 152.781 166.896C153.405 167.152 153.941 167.552 154.389 168.096C154.853 168.624 155.093 169.328 155.109 170.208C155.109 170.976 154.893 171.664 154.461 172.272C154.045 172.88 153.437 173.36 152.637 173.712C151.853 174.048 150.933 174.216 149.877 174.216ZM161.779 163.464V169.896C161.779 170.344 161.883 170.672 162.091 170.88C162.315 171.072 162.683 171.168 163.195 171.168H164.755V174H162.643C159.811 174 158.395 172.624 158.395 169.872V163.464H156.811V160.704H158.395V157.416H161.779V160.704H164.755V163.464H161.779ZM179.532 167.064C179.532 167.544 179.5 167.976 179.436 168.36H169.716C169.796 169.32 170.132 170.072 170.724 170.616C171.316 171.16 172.044 171.432 172.908 171.432C174.156 171.432 175.044 170.896 175.572 169.824H179.196C178.812 171.104 178.076 172.16 176.988 172.992C175.9 173.808 174.564 174.216 172.98 174.216C171.7 174.216 170.548 173.936 169.524 173.376C168.516 172.8 167.724 171.992 167.148 170.952C166.588 169.912 166.308 168.712 166.308 167.352C166.308 165.976 166.588 164.768 167.148 163.728C167.708 162.688 168.492 161.888 169.5 161.328C170.508 160.768 171.668 160.488 172.98 160.488C174.244 160.488 175.372 160.76 176.364 161.304C177.372 161.848 178.148 162.624 178.692 163.632C179.252 164.624 179.532 165.768 179.532 167.064ZM176.052 166.104C176.036 165.24 175.724 164.552 175.116 164.04C174.508 163.512 173.764 163.248 172.884 163.248C172.052 163.248 171.348 163.504 170.772 164.016C170.212 164.512 169.868 165.208 169.74 166.104H176.052ZM185.344 162.768C185.776 162.064 186.336 161.512 187.024 161.112C187.728 160.712 188.528 160.512 189.424 160.512V164.04H188.536C187.48 164.04 186.68 164.288 186.136 164.784C185.608 165.28 185.344 166.144 185.344 167.376V174H181.984V160.704H185.344V162.768ZM207.75 157.248V159.96H200.766V164.256H206.118V166.92H200.766V174H197.406V157.248H207.75ZM216.037 174.216C214.757 174.216 213.605 173.936 212.581 173.376C211.557 172.8 210.749 171.992 210.157 170.952C209.581 169.912 209.293 168.712 209.293 167.352C209.293 165.992 209.589 164.792 210.181 163.752C210.789 162.712 211.613 161.912 212.653 161.352C213.693 160.776 214.853 160.488 216.133 160.488C217.413 160.488 218.573 160.776 219.613 161.352C220.653 161.912 221.469 162.712 222.061 163.752C222.669 164.792 222.973 165.992 222.973 167.352C222.973 168.712 222.661 169.912 222.037 170.952C221.429 171.992 220.597 172.8 219.541 173.376C218.501 173.936 217.333 174.216 216.037 174.216ZM216.037 171.288C216.645 171.288 217.213 171.144 217.741 170.856C218.285 170.552 218.717 170.104 219.037 169.512C219.357 168.92 219.517 168.2 219.517 167.352C219.517 166.088 219.181 165.12 218.509 164.448C217.853 163.76 217.045 163.416 216.085 163.416C215.125 163.416 214.317 163.76 213.661 164.448C213.021 165.12 212.701 166.088 212.701 167.352C212.701 168.616 213.013 169.592 213.637 170.28C214.277 170.952 215.077 171.288 216.037 171.288ZM228.797 162.768C229.229 162.064 229.789 161.512 230.477 161.112C231.181 160.712 231.981 160.512 232.877 160.512V164.04H231.989C230.933 164.04 230.133 164.288 229.589 164.784C229.061 165.28 228.797 166.144 228.797 167.376V174H225.437V160.704H228.797V162.768ZM251.131 170.808H244.459L243.355 174H239.827L245.851 157.224H249.763L255.787 174H252.235L251.131 170.808ZM250.219 168.12L247.795 161.112L245.371 168.12H250.219ZM278.086 174H274.726L267.118 162.504V174H263.758V157.224H267.118L274.726 168.744V157.224H278.086V174ZM293.766 167.064C293.766 167.544 293.734 167.976 293.67 168.36H283.95C284.03 169.32 284.366 170.072 284.958 170.616C285.55 171.16 286.278 171.432 287.142 171.432C288.39 171.432 289.278 170.896 289.806 169.824H293.43C293.046 171.104 292.31 172.16 291.222 172.992C290.134 173.808 288.798 174.216 287.214 174.216C285.934 174.216 284.782 173.936 283.758 173.376C282.75 172.8 281.958 171.992 281.382 170.952C280.822 169.912 280.542 168.712 280.542 167.352C280.542 165.976 280.822 164.768 281.382 163.728C281.942 162.688 282.726 161.888 283.734 161.328C284.742 160.768 285.902 160.488 287.214 160.488C288.478 160.488 289.606 160.76 290.598 161.304C291.606 161.848 292.382 162.624 292.926 163.632C293.486 164.624 293.766 165.768 293.766 167.064ZM290.286 166.104C290.27 165.24 289.958 164.552 289.35 164.04C288.742 163.512 287.998 163.248 287.118 163.248C286.286 163.248 285.582 163.504 285.006 164.016C284.446 164.512 284.102 165.208 283.974 166.104H290.286ZM314.651 160.704L310.763 174H307.139L304.715 164.712L302.291 174H298.643L294.731 160.704H298.139L300.491 170.832L303.035 160.704H306.587L309.083 170.808L311.435 160.704H314.651ZM101.928 206.808H95.256L94.152 210H90.624L96.648 193.224H100.56L106.584 210H103.032L101.928 206.808ZM101.016 204.12L98.592 197.112L96.168 204.12H101.016ZM107.972 203.352C107.972 201.976 108.252 200.776 108.812 199.752C109.372 198.712 110.148 197.912 111.14 197.352C112.132 196.776 113.268 196.488 114.548 196.488C116.196 196.488 117.556 196.904 118.628 197.736C119.716 198.552 120.444 199.704 120.812 201.192H117.188C116.996 200.616 116.668 200.168 116.204 199.848C115.756 199.512 115.196 199.344 114.524 199.344C113.564 199.344 112.804 199.696 112.244 200.4C111.684 201.088 111.404 202.072 111.404 203.352C111.404 204.616 111.684 205.6 112.244 206.304C112.804 206.992 113.564 207.336 114.524 207.336C115.884 207.336 116.772 206.728 117.188 205.512H120.812C120.444 206.952 119.716 208.096 118.628 208.944C117.54 209.792 116.18 210.216 114.548 210.216C113.268 210.216 112.132 209.936 111.14 209.376C110.148 208.8 109.372 208 108.812 206.976C108.252 205.936 107.972 204.728 107.972 203.352ZM122.409 203.352C122.409 201.976 122.689 200.776 123.249 199.752C123.809 198.712 124.585 197.912 125.577 197.352C126.569 196.776 127.705 196.488 128.985 196.488C130.633 196.488 131.993 196.904 133.065 197.736C134.153 198.552 134.881 199.704 135.249 201.192H131.625C131.433 200.616 131.105 200.168 130.641 199.848C130.193 199.512 129.633 199.344 128.961 199.344C128.001 199.344 127.241 199.696 126.681 200.4C126.121 201.088 125.841 202.072 125.841 203.352C125.841 204.616 126.121 205.6 126.681 206.304C127.241 206.992 128.001 207.336 128.961 207.336C130.321 207.336 131.209 206.728 131.625 205.512H135.249C134.881 206.952 134.153 208.096 133.065 208.944C131.977 209.792 130.617 210.216 128.985 210.216C127.705 210.216 126.569 209.936 125.577 209.376C124.585 208.8 123.809 208 123.249 206.976C122.689 205.936 122.409 204.728 122.409 203.352ZM143.615 210.216C142.335 210.216 141.183 209.936 140.159 209.376C139.135 208.8 138.327 207.992 137.735 206.952C137.159 205.912 136.871 204.712 136.871 203.352C136.871 201.992 137.167 200.792 137.759 199.752C138.367 198.712 139.191 197.912 140.231 197.352C141.271 196.776 142.431 196.488 143.711 196.488C144.991 196.488 146.151 196.776 147.191 197.352C148.231 197.912 149.047 198.712 149.639 199.752C150.247 200.792 150.551 201.992 150.551 203.352C150.551 204.712 150.239 205.912 149.615 206.952C149.007 207.992 148.175 208.8 147.119 209.376C146.079 209.936 144.911 210.216 143.615 210.216ZM143.615 207.288C144.223 207.288 144.791 207.144 145.319 206.856C145.863 206.552 146.295 206.104 146.615 205.512C146.935 204.92 147.095 204.2 147.095 203.352C147.095 202.088 146.759 201.12 146.087 200.448C145.431 199.76 144.623 199.416 143.663 199.416C142.703 199.416 141.895 199.76 141.239 200.448C140.599 201.12 140.279 202.088 140.279 203.352C140.279 204.616 140.591 205.592 141.215 206.28C141.855 206.952 142.655 207.288 143.615 207.288ZM165.567 196.704V210H162.183V208.32C161.751 208.896 161.183 209.352 160.479 209.688C159.791 210.008 159.039 210.168 158.223 210.168C157.183 210.168 156.263 209.952 155.463 209.52C154.663 209.072 154.031 208.424 153.567 207.576C153.119 206.712 152.895 205.688 152.895 204.504V196.704H156.255V204.024C156.255 205.08 156.519 205.896 157.047 206.472C157.575 207.032 158.295 207.312 159.207 207.312C160.135 207.312 160.863 207.032 161.391 206.472C161.919 205.896 162.183 205.08 162.183 204.024V196.704H165.567ZM176.251 196.512C177.835 196.512 179.115 197.016 180.091 198.024C181.067 199.016 181.555 200.408 181.555 202.2V210H178.195V202.656C178.195 201.6 177.931 200.792 177.403 200.232C176.875 199.656 176.155 199.368 175.243 199.368C174.315 199.368 173.579 199.656 173.035 200.232C172.507 200.792 172.243 201.6 172.243 202.656V210H168.883V196.704H172.243V198.36C172.691 197.784 173.259 197.336 173.947 197.016C174.651 196.68 175.419 196.512 176.251 196.512ZM188.662 199.464V205.896C188.662 206.344 188.766 206.672 188.974 206.88C189.198 207.072 189.566 207.168 190.078 207.168H191.638V210H189.526C186.694 210 185.278 208.624 185.278 205.872V199.464H183.694V196.704H185.278V193.416H188.662V196.704H191.638V199.464H188.662ZM195.542 210.168C194.934 210.168 194.43 209.984 194.03 209.616C193.646 209.232 193.454 208.76 193.454 208.2C193.454 207.64 193.646 207.176 194.03 206.808C194.43 206.424 194.934 206.232 195.542 206.232C196.134 206.232 196.622 206.424 197.006 206.808C197.39 207.176 197.582 207.64 197.582 208.2C197.582 208.76 197.39 209.232 197.006 209.616C196.622 209.984 196.134 210.168 195.542 210.168Z" fill="#022D4D"/>
<path d="M95.076 127.126C93.816 127.126 92.778 126.844 91.962 126.28C91.158 125.704 90.756 124.9 90.756 123.868C90.756 123.76 90.768 123.598 90.792 123.382H93.366C93.318 123.886 93.45 124.3 93.762 124.624C94.086 124.948 94.554 125.11 95.166 125.11C95.778 125.11 96.258 124.984 96.606 124.732C96.966 124.468 97.146 124.096 97.146 123.616C97.146 123.172 96.96 122.818 96.588 122.554C96.228 122.29 95.658 121.996 94.878 121.672C94.158 121.372 93.57 121.096 93.114 120.844C92.67 120.592 92.286 120.244 91.962 119.8C91.65 119.344 91.494 118.774 91.494 118.09C91.494 117.31 91.692 116.632 92.088 116.056C92.496 115.48 93.048 115.036 93.744 114.724C94.452 114.412 95.256 114.256 96.156 114.256C97.044 114.256 97.812 114.406 98.46 114.706C99.12 114.994 99.612 115.408 99.936 115.948C100.272 116.488 100.416 117.118 100.368 117.838H97.686L97.704 117.64C97.704 117.244 97.554 116.92 97.254 116.668C96.966 116.416 96.558 116.29 96.03 116.29C95.466 116.29 95.01 116.422 94.662 116.686C94.314 116.95 94.14 117.31 94.14 117.766C94.14 118.066 94.236 118.33 94.428 118.558C94.632 118.774 94.878 118.966 95.166 119.134C95.454 119.29 95.868 119.494 96.408 119.746C97.116 120.058 97.698 120.352 98.154 120.628C98.61 120.904 99 121.27 99.324 121.726C99.648 122.182 99.81 122.74 99.81 123.4C99.81 124.12 99.612 124.762 99.216 125.326C98.832 125.89 98.28 126.334 97.56 126.658C96.852 126.97 96.024 127.126 95.076 127.126ZM112.074 114.436L111.714 116.416H108.384L106.512 127H103.974L105.846 116.416H102.498L102.858 114.436H112.074ZM116.091 116.398L115.515 119.656H119.745L119.403 121.6H115.173L114.579 125.002H119.349L118.989 127H111.681L113.913 114.418H121.203L120.861 116.398H116.091ZM131.953 118.324C131.833 118.996 131.563 119.626 131.143 120.214C130.723 120.802 130.141 121.276 129.397 121.636C128.665 121.996 127.783 122.176 126.751 122.176H124.645L123.799 127H121.261L123.493 114.436H128.119C129.403 114.436 130.375 114.724 131.035 115.3C131.695 115.864 132.025 116.62 132.025 117.568C132.025 117.844 132.001 118.096 131.953 118.324ZM127.003 120.196C127.687 120.196 128.227 120.028 128.623 119.692C129.019 119.356 129.271 118.9 129.379 118.324C129.403 118.216 129.415 118.06 129.415 117.856C129.415 116.908 128.827 116.434 127.651 116.434H125.671L125.005 120.196H127.003ZM138.289 116.56L138.721 114.22H143.041L140.773 127H138.181L140.017 116.56H138.289Z" fill="#022D4D"/>
<path d="M92.646 253.712H95.936V255H91.05V245.27H92.646V253.712ZM100.617 255.126C99.8887 255.126 99.2307 254.963 98.6427 254.636C98.0547 254.3 97.5927 253.833 97.2567 253.236C96.9207 252.629 96.7527 251.929 96.7527 251.136C96.7527 250.352 96.9254 249.657 97.2707 249.05C97.616 248.443 98.0874 247.977 98.6847 247.65C99.282 247.323 99.9494 247.16 100.687 247.16C101.424 247.16 102.091 247.323 102.689 247.65C103.286 247.977 103.757 248.443 104.103 249.05C104.448 249.657 104.621 250.352 104.621 251.136C104.621 251.92 104.443 252.615 104.089 253.222C103.734 253.829 103.249 254.3 102.633 254.636C102.026 254.963 101.354 255.126 100.617 255.126ZM100.617 253.74C101.027 253.74 101.41 253.642 101.765 253.446C102.129 253.25 102.423 252.956 102.647 252.564C102.871 252.172 102.983 251.696 102.983 251.136C102.983 250.576 102.875 250.105 102.661 249.722C102.446 249.33 102.161 249.036 101.807 248.84C101.452 248.644 101.069 248.546 100.659 248.546C100.248 248.546 99.8654 248.644 99.5107 248.84C99.1654 249.036 98.89 249.33 98.6847 249.722C98.4794 250.105 98.3767 250.576 98.3767 251.136C98.3767 251.967 98.5867 252.611 99.0067 253.068C99.436 253.516 99.9727 253.74 100.617 253.74ZM107.794 248.406C108.028 248.014 108.336 247.711 108.718 247.496C109.11 247.272 109.572 247.16 110.104 247.16V248.812H109.698C109.073 248.812 108.597 248.971 108.27 249.288C107.953 249.605 107.794 250.156 107.794 250.94V255H106.198V247.286H107.794V248.406ZM118.641 250.954C118.641 251.243 118.623 251.505 118.585 251.738H112.691C112.738 252.354 112.967 252.849 113.377 253.222C113.788 253.595 114.292 253.782 114.889 253.782C115.748 253.782 116.355 253.423 116.709 252.704H118.431C118.198 253.413 117.773 253.997 117.157 254.454C116.551 254.902 115.795 255.126 114.889 255.126C114.152 255.126 113.489 254.963 112.901 254.636C112.323 254.3 111.865 253.833 111.529 253.236C111.203 252.629 111.039 251.929 111.039 251.136C111.039 250.343 111.198 249.647 111.515 249.05C111.842 248.443 112.295 247.977 112.873 247.65C113.461 247.323 114.133 247.16 114.889 247.16C115.617 247.16 116.266 247.319 116.835 247.636C117.405 247.953 117.848 248.401 118.165 248.98C118.483 249.549 118.641 250.207 118.641 250.954ZM116.975 250.45C116.966 249.862 116.756 249.391 116.345 249.036C115.935 248.681 115.426 248.504 114.819 248.504C114.269 248.504 113.797 248.681 113.405 249.036C113.013 249.381 112.78 249.853 112.705 250.45H116.975ZM129.55 247.16C130.157 247.16 130.698 247.286 131.174 247.538C131.659 247.79 132.037 248.163 132.308 248.658C132.588 249.153 132.728 249.75 132.728 250.45V255H131.146V250.688C131.146 249.997 130.973 249.47 130.628 249.106C130.283 248.733 129.811 248.546 129.214 248.546C128.617 248.546 128.141 248.733 127.786 249.106C127.441 249.47 127.268 249.997 127.268 250.688V255H125.686V250.688C125.686 249.997 125.513 249.47 125.168 249.106C124.823 248.733 124.351 248.546 123.754 248.546C123.157 248.546 122.681 248.733 122.326 249.106C121.981 249.47 121.808 249.997 121.808 250.688V255H120.212V247.286H121.808V248.168C122.069 247.851 122.401 247.603 122.802 247.426C123.203 247.249 123.633 247.16 124.09 247.16C124.706 247.16 125.257 247.291 125.742 247.552C126.227 247.813 126.601 248.191 126.862 248.686C127.095 248.219 127.459 247.851 127.954 247.58C128.449 247.3 128.981 247.16 129.55 247.16ZM139.208 246.264C138.918 246.264 138.676 246.166 138.48 245.97C138.284 245.774 138.186 245.531 138.186 245.242C138.186 244.953 138.284 244.71 138.48 244.514C138.676 244.318 138.918 244.22 139.208 244.22C139.488 244.22 139.726 244.318 139.922 244.514C140.118 244.71 140.216 244.953 140.216 245.242C140.216 245.531 140.118 245.774 139.922 245.97C139.726 246.166 139.488 246.264 139.208 246.264ZM139.992 247.286V255H138.396V247.286H139.992ZM143.683 248.42C143.954 248.065 144.322 247.767 144.789 247.524C145.256 247.281 145.783 247.16 146.371 247.16C147.043 247.16 147.654 247.328 148.205 247.664C148.765 247.991 149.204 248.453 149.521 249.05C149.838 249.647 149.997 250.333 149.997 251.108C149.997 251.883 149.838 252.578 149.521 253.194C149.204 253.801 148.765 254.277 148.205 254.622C147.654 254.958 147.043 255.126 146.371 255.126C145.783 255.126 145.26 255.009 144.803 254.776C144.346 254.533 143.972 254.235 143.683 253.88V258.668H142.087V247.286H143.683V248.42ZM148.373 251.108C148.373 250.576 148.261 250.119 148.037 249.736C147.822 249.344 147.533 249.05 147.169 248.854C146.814 248.649 146.432 248.546 146.021 248.546C145.62 248.546 145.237 248.649 144.873 248.854C144.518 249.059 144.229 249.358 144.005 249.75C143.79 250.142 143.683 250.604 143.683 251.136C143.683 251.668 143.79 252.135 144.005 252.536C144.229 252.928 144.518 253.227 144.873 253.432C145.237 253.637 145.62 253.74 146.021 253.74C146.432 253.74 146.814 253.637 147.169 253.432C147.533 253.217 147.822 252.909 148.037 252.508C148.261 252.107 148.373 251.64 148.373 251.108ZM154.375 255.126C153.769 255.126 153.223 255.019 152.737 254.804C152.261 254.58 151.883 254.281 151.603 253.908C151.323 253.525 151.174 253.101 151.155 252.634H152.807C152.835 252.961 152.989 253.236 153.269 253.46C153.559 253.675 153.918 253.782 154.347 253.782C154.795 253.782 155.141 253.698 155.383 253.53C155.635 253.353 155.761 253.129 155.761 252.858C155.761 252.569 155.621 252.354 155.341 252.214C155.071 252.074 154.637 251.92 154.039 251.752C153.461 251.593 152.989 251.439 152.625 251.29C152.261 251.141 151.944 250.912 151.673 250.604C151.412 250.296 151.281 249.89 151.281 249.386C151.281 248.975 151.403 248.602 151.645 248.266C151.888 247.921 152.233 247.65 152.681 247.454C153.139 247.258 153.661 247.16 154.249 247.16C155.127 247.16 155.831 247.384 156.363 247.832C156.905 248.271 157.194 248.873 157.231 249.638H155.635C155.607 249.293 155.467 249.017 155.215 248.812C154.963 248.607 154.623 248.504 154.193 248.504C153.773 248.504 153.451 248.583 153.227 248.742C153.003 248.901 152.891 249.111 152.891 249.372C152.891 249.577 152.966 249.75 153.115 249.89C153.265 250.03 153.447 250.142 153.661 250.226C153.876 250.301 154.193 250.399 154.613 250.52C155.173 250.669 155.631 250.823 155.985 250.982C156.349 251.131 156.662 251.355 156.923 251.654C157.185 251.953 157.32 252.349 157.329 252.844C157.329 253.283 157.208 253.675 156.965 254.02C156.723 254.365 156.377 254.636 155.929 254.832C155.491 255.028 154.973 255.126 154.375 255.126ZM166.04 247.286V255H164.444V254.09C164.192 254.407 163.861 254.659 163.45 254.846C163.049 255.023 162.619 255.112 162.162 255.112C161.555 255.112 161.009 254.986 160.524 254.734C160.048 254.482 159.67 254.109 159.39 253.614C159.119 253.119 158.984 252.522 158.984 251.822V247.286H160.566V251.584C160.566 252.275 160.739 252.807 161.084 253.18C161.429 253.544 161.901 253.726 162.498 253.726C163.095 253.726 163.567 253.544 163.912 253.18C164.267 252.807 164.444 252.275 164.444 251.584V247.286H166.04ZM177.484 247.16C178.09 247.16 178.632 247.286 179.108 247.538C179.593 247.79 179.971 248.163 180.242 248.658C180.522 249.153 180.662 249.75 180.662 250.45V255H179.08V250.688C179.08 249.997 178.907 249.47 178.562 249.106C178.216 248.733 177.745 248.546 177.148 248.546C176.55 248.546 176.074 248.733 175.72 249.106C175.374 249.47 175.202 249.997 175.202 250.688V255H173.62V250.688C173.62 249.997 173.447 249.47 173.102 249.106C172.756 248.733 172.285 248.546 171.688 248.546C171.09 248.546 170.614 248.733 170.26 249.106C169.914 249.47 169.742 249.997 169.742 250.688V255H168.146V247.286H169.742V248.168C170.003 247.851 170.334 247.603 170.736 247.426C171.137 247.249 171.566 247.16 172.024 247.16C172.64 247.16 173.19 247.291 173.676 247.552C174.161 247.813 174.534 248.191 174.796 248.686C175.029 248.219 175.393 247.851 175.888 247.58C176.382 247.3 176.914 247.16 177.484 247.16ZM185.797 251.108C185.797 250.333 185.956 249.647 186.273 249.05C186.6 248.453 187.039 247.991 187.589 247.664C188.149 247.328 188.77 247.16 189.451 247.16C189.955 247.16 190.45 247.272 190.935 247.496C191.43 247.711 191.822 248 192.111 248.364V244.64H193.721V255H192.111V253.838C191.85 254.211 191.486 254.519 191.019 254.762C190.562 255.005 190.035 255.126 189.437 255.126C188.765 255.126 188.149 254.958 187.589 254.622C187.039 254.277 186.6 253.801 186.273 253.194C185.956 252.578 185.797 251.883 185.797 251.108ZM192.111 251.136C192.111 250.604 191.999 250.142 191.775 249.75C191.561 249.358 191.276 249.059 190.921 248.854C190.567 248.649 190.184 248.546 189.773 248.546C189.363 248.546 188.98 248.649 188.625 248.854C188.271 249.05 187.981 249.344 187.757 249.736C187.543 250.119 187.435 250.576 187.435 251.108C187.435 251.64 187.543 252.107 187.757 252.508C187.981 252.909 188.271 253.217 188.625 253.432C188.989 253.637 189.372 253.74 189.773 253.74C190.184 253.74 190.567 253.637 190.921 253.432C191.276 253.227 191.561 252.928 191.775 252.536C191.999 252.135 192.111 251.668 192.111 251.136ZM199.164 255.126C198.436 255.126 197.778 254.963 197.19 254.636C196.602 254.3 196.14 253.833 195.804 253.236C195.468 252.629 195.3 251.929 195.3 251.136C195.3 250.352 195.472 249.657 195.818 249.05C196.163 248.443 196.634 247.977 197.232 247.65C197.829 247.323 198.496 247.16 199.234 247.16C199.971 247.16 200.638 247.323 201.236 247.65C201.833 247.977 202.304 248.443 202.65 249.05C202.995 249.657 203.168 250.352 203.168 251.136C203.168 251.92 202.99 252.615 202.636 253.222C202.281 253.829 201.796 254.3 201.18 254.636C200.573 254.963 199.901 255.126 199.164 255.126ZM199.164 253.74C199.574 253.74 199.957 253.642 200.312 253.446C200.676 253.25 200.97 252.956 201.194 252.564C201.418 252.172 201.53 251.696 201.53 251.136C201.53 250.576 201.422 250.105 201.208 249.722C200.993 249.33 200.708 249.036 200.354 248.84C199.999 248.644 199.616 248.546 199.206 248.546C198.795 248.546 198.412 248.644 198.058 248.84C197.712 249.036 197.437 249.33 197.232 249.722C197.026 250.105 196.924 250.576 196.924 251.136C196.924 251.967 197.134 252.611 197.554 253.068C197.983 253.516 198.52 253.74 199.164 253.74ZM206.341 244.64V255H204.745V244.64H206.341ZM211.783 255.126C211.055 255.126 210.397 254.963 209.809 254.636C209.221 254.3 208.759 253.833 208.423 253.236C208.087 252.629 207.919 251.929 207.919 251.136C207.919 250.352 208.091 249.657 208.437 249.05C208.782 248.443 209.253 247.977 209.851 247.65C210.448 247.323 211.115 247.16 211.853 247.16C212.59 247.16 213.257 247.323 213.855 247.65C214.452 247.977 214.923 248.443 215.269 249.05C215.614 249.657 215.787 250.352 215.787 251.136C215.787 251.92 215.609 252.615 215.255 253.222C214.9 253.829 214.415 254.3 213.799 254.636C213.192 254.963 212.52 255.126 211.783 255.126ZM211.783 253.74C212.193 253.74 212.576 253.642 212.931 253.446C213.295 253.25 213.589 252.956 213.813 252.564C214.037 252.172 214.149 251.696 214.149 251.136C214.149 250.576 214.041 250.105 213.827 249.722C213.612 249.33 213.327 249.036 212.973 248.84C212.618 248.644 212.235 248.546 211.825 248.546C211.414 248.546 211.031 248.644 210.677 248.84C210.331 249.036 210.056 249.33 209.851 249.722C209.645 250.105 209.543 250.576 209.543 251.136C209.543 251.967 209.753 252.611 210.173 253.068C210.602 253.516 211.139 253.74 211.783 253.74ZM218.96 248.406C219.194 248.014 219.502 247.711 219.884 247.496C220.276 247.272 220.738 247.16 221.27 247.16V248.812H220.864C220.239 248.812 219.763 248.971 219.436 249.288C219.119 249.605 218.96 250.156 218.96 250.94V255H217.364V247.286H218.96V248.406ZM229.174 255.126C228.568 255.126 228.022 255.019 227.536 254.804C227.06 254.58 226.682 254.281 226.402 253.908C226.122 253.525 225.973 253.101 225.954 252.634H227.606C227.634 252.961 227.788 253.236 228.068 253.46C228.358 253.675 228.717 253.782 229.146 253.782C229.594 253.782 229.94 253.698 230.182 253.53C230.434 253.353 230.56 253.129 230.56 252.858C230.56 252.569 230.42 252.354 230.14 252.214C229.87 252.074 229.436 251.92 228.838 251.752C228.26 251.593 227.788 251.439 227.424 251.29C227.06 251.141 226.743 250.912 226.472 250.604C226.211 250.296 226.08 249.89 226.08 249.386C226.08 248.975 226.202 248.602 226.444 248.266C226.687 247.921 227.032 247.65 227.48 247.454C227.938 247.258 228.46 247.16 229.048 247.16C229.926 247.16 230.63 247.384 231.162 247.832C231.704 248.271 231.993 248.873 232.03 249.638H230.434C230.406 249.293 230.266 249.017 230.014 248.812C229.762 248.607 229.422 248.504 228.992 248.504C228.572 248.504 228.25 248.583 228.026 248.742C227.802 248.901 227.69 249.111 227.69 249.372C227.69 249.577 227.765 249.75 227.914 249.89C228.064 250.03 228.246 250.142 228.46 250.226C228.675 250.301 228.992 250.399 229.412 250.52C229.972 250.669 230.43 250.823 230.784 250.982C231.148 251.131 231.461 251.355 231.722 251.654C231.984 251.953 232.119 252.349 232.128 252.844C232.128 253.283 232.007 253.675 231.764 254.02C231.522 254.365 231.176 254.636 230.728 254.832C230.29 255.028 229.772 255.126 229.174 255.126ZM234.665 246.264C234.375 246.264 234.133 246.166 233.937 245.97C233.741 245.774 233.643 245.531 233.643 245.242C233.643 244.953 233.741 244.71 233.937 244.514C234.133 244.318 234.375 244.22 234.665 244.22C234.945 244.22 235.183 244.318 235.379 244.514C235.575 244.71 235.673 244.953 235.673 245.242C235.673 245.531 235.575 245.774 235.379 245.97C235.183 246.166 234.945 246.264 234.665 246.264ZM235.449 247.286V255H233.853V247.286H235.449ZM239.406 248.588V252.858C239.406 253.147 239.471 253.357 239.602 253.488C239.742 253.609 239.975 253.67 240.302 253.67H241.282V255H240.022C239.303 255 238.753 254.832 238.37 254.496C237.987 254.16 237.796 253.614 237.796 252.858V248.588H236.886V247.286H237.796V245.368H239.406V247.286H241.282V248.588H239.406ZM245.858 251.108C245.858 250.333 246.017 249.647 246.334 249.05C246.661 248.453 247.099 247.991 247.65 247.664C248.21 247.328 248.826 247.16 249.498 247.16C250.105 247.16 250.632 247.281 251.08 247.524C251.537 247.757 251.901 248.051 252.172 248.406V247.286H253.782V255H252.172V253.852C251.901 254.216 251.533 254.519 251.066 254.762C250.599 255.005 250.067 255.126 249.47 255.126C248.807 255.126 248.201 254.958 247.65 254.622C247.099 254.277 246.661 253.801 246.334 253.194C246.017 252.578 245.858 251.883 245.858 251.108ZM252.172 251.136C252.172 250.604 252.06 250.142 251.836 249.75C251.621 249.358 251.337 249.059 250.982 248.854C250.627 248.649 250.245 248.546 249.834 248.546C249.423 248.546 249.041 248.649 248.686 248.854C248.331 249.05 248.042 249.344 247.818 249.736C247.603 250.119 247.496 250.576 247.496 251.108C247.496 251.64 247.603 252.107 247.818 252.508C248.042 252.909 248.331 253.217 248.686 253.432C249.05 253.637 249.433 253.74 249.834 253.74C250.245 253.74 250.627 253.637 250.982 253.432C251.337 253.227 251.621 252.928 251.836 252.536C252.06 252.135 252.172 251.668 252.172 251.136ZM265.216 247.16C265.823 247.16 266.364 247.286 266.84 247.538C267.325 247.79 267.703 248.163 267.974 248.658C268.254 249.153 268.394 249.75 268.394 250.45V255H266.812V250.688C266.812 249.997 266.639 249.47 266.294 249.106C265.949 248.733 265.477 248.546 264.88 248.546C264.283 248.546 263.807 248.733 263.452 249.106C263.107 249.47 262.934 249.997 262.934 250.688V255H261.352V250.688C261.352 249.997 261.179 249.47 260.834 249.106C260.489 248.733 260.017 248.546 259.42 248.546C258.823 248.546 258.347 248.733 257.992 249.106C257.647 249.47 257.474 249.997 257.474 250.688V255H255.878V247.286H257.474V248.168C257.735 247.851 258.067 247.603 258.468 247.426C258.869 247.249 259.299 247.16 259.756 247.16C260.372 247.16 260.923 247.291 261.408 247.552C261.893 247.813 262.267 248.191 262.528 248.686C262.761 248.219 263.125 247.851 263.62 247.58C264.115 247.3 264.647 247.16 265.216 247.16ZM277.495 250.954C277.495 251.243 277.476 251.505 277.439 251.738H271.545C271.592 252.354 271.82 252.849 272.231 253.222C272.642 253.595 273.146 253.782 273.743 253.782C274.602 253.782 275.208 253.423 275.563 252.704H277.285C277.052 253.413 276.627 253.997 276.011 254.454C275.404 254.902 274.648 255.126 273.743 255.126C273.006 255.126 272.343 254.963 271.755 254.636C271.176 254.3 270.719 253.833 270.383 253.236C270.056 252.629 269.893 251.929 269.893 251.136C269.893 250.343 270.052 249.647 270.369 249.05C270.696 248.443 271.148 247.977 271.727 247.65C272.315 247.323 272.987 247.16 273.743 247.16C274.471 247.16 275.12 247.319 275.689 247.636C276.258 247.953 276.702 248.401 277.019 248.98C277.336 249.549 277.495 250.207 277.495 250.954ZM275.829 250.45C275.82 249.862 275.61 249.391 275.199 249.036C274.788 248.681 274.28 248.504 273.673 248.504C273.122 248.504 272.651 248.681 272.259 249.036C271.867 249.381 271.634 249.853 271.559 250.45H275.829ZM280.928 248.588V252.858C280.928 253.147 280.993 253.357 281.124 253.488C281.264 253.609 281.497 253.67 281.824 253.67H282.804V255H281.544C280.825 255 280.274 254.832 279.892 254.496C279.509 254.16 279.318 253.614 279.318 252.858V248.588H278.408V247.286H279.318V245.368H280.928V247.286H282.804V248.588H280.928ZM286.025 253.082L284.331 256.946H283.295L284.289 253.082H286.025ZM90.518 274.136C90.518 273.343 90.6767 272.647 90.994 272.05C91.3207 271.443 91.7687 270.977 92.338 270.65C92.9073 270.323 93.5607 270.16 94.298 270.16C95.2313 270.16 96.0013 270.384 96.608 270.832C97.224 271.271 97.6393 271.901 97.854 272.722H96.132C95.992 272.339 95.768 272.041 95.46 271.826C95.152 271.611 94.7647 271.504 94.298 271.504C93.6447 271.504 93.122 271.737 92.73 272.204C92.3473 272.661 92.156 273.305 92.156 274.136C92.156 274.967 92.3473 275.615 92.73 276.082C93.122 276.549 93.6447 276.782 94.298 276.782C95.222 276.782 95.8333 276.376 96.132 275.564H97.854C97.63 276.348 97.21 276.973 96.594 277.44C95.978 277.897 95.2127 278.126 94.298 278.126C93.5607 278.126 92.9073 277.963 92.338 277.636C91.7687 277.3 91.3207 276.833 90.994 276.236C90.6767 275.629 90.518 274.929 90.518 274.136ZM102.791 278.126C102.063 278.126 101.405 277.963 100.817 277.636C100.229 277.3 99.7665 276.833 99.4305 276.236C99.0945 275.629 98.9265 274.929 98.9265 274.136C98.9265 273.352 99.0992 272.657 99.4445 272.05C99.7899 271.443 100.261 270.977 100.859 270.65C101.456 270.323 102.123 270.16 102.861 270.16C103.598 270.16 104.265 270.323 104.863 270.65C105.46 270.977 105.931 271.443 106.277 272.05C106.622 272.657 106.795 273.352 106.795 274.136C106.795 274.92 106.617 275.615 106.263 276.222C105.908 276.829 105.423 277.3 104.807 277.636C104.2 277.963 103.528 278.126 102.791 278.126ZM102.791 276.74C103.201 276.74 103.584 276.642 103.939 276.446C104.303 276.25 104.597 275.956 104.821 275.564C105.045 275.172 105.157 274.696 105.157 274.136C105.157 273.576 105.049 273.105 104.835 272.722C104.62 272.33 104.335 272.036 103.981 271.84C103.626 271.644 103.243 271.546 102.833 271.546C102.422 271.546 102.039 271.644 101.685 271.84C101.339 272.036 101.064 272.33 100.859 272.722C100.653 273.105 100.551 273.576 100.551 274.136C100.551 274.967 100.761 275.611 101.181 276.068C101.61 276.516 102.147 276.74 102.791 276.74ZM112.264 270.16C112.871 270.16 113.412 270.286 113.888 270.538C114.374 270.79 114.752 271.163 115.022 271.658C115.293 272.153 115.428 272.75 115.428 273.45V278H113.846V273.688C113.846 272.997 113.674 272.47 113.328 272.106C112.983 271.733 112.512 271.546 111.914 271.546C111.317 271.546 110.841 271.733 110.486 272.106C110.141 272.47 109.968 272.997 109.968 273.688V278H108.372V270.286H109.968V271.168C110.23 270.851 110.561 270.603 110.962 270.426C111.373 270.249 111.807 270.16 112.264 270.16ZM120.264 278.126C119.657 278.126 119.111 278.019 118.626 277.804C118.15 277.58 117.772 277.281 117.492 276.908C117.212 276.525 117.063 276.101 117.044 275.634H118.696C118.724 275.961 118.878 276.236 119.158 276.46C119.447 276.675 119.807 276.782 120.236 276.782C120.684 276.782 121.029 276.698 121.272 276.53C121.524 276.353 121.65 276.129 121.65 275.858C121.65 275.569 121.51 275.354 121.23 275.214C120.959 275.074 120.525 274.92 119.928 274.752C119.349 274.593 118.878 274.439 118.514 274.29C118.15 274.141 117.833 273.912 117.562 273.604C117.301 273.296 117.17 272.89 117.17 272.386C117.17 271.975 117.291 271.602 117.534 271.266C117.777 270.921 118.122 270.65 118.57 270.454C119.027 270.258 119.55 270.16 120.138 270.16C121.015 270.16 121.72 270.384 122.252 270.832C122.793 271.271 123.083 271.873 123.12 272.638H121.524C121.496 272.293 121.356 272.017 121.104 271.812C120.852 271.607 120.511 271.504 120.082 271.504C119.662 271.504 119.34 271.583 119.116 271.742C118.892 271.901 118.78 272.111 118.78 272.372C118.78 272.577 118.855 272.75 119.004 272.89C119.153 273.03 119.335 273.142 119.55 273.226C119.765 273.301 120.082 273.399 120.502 273.52C121.062 273.669 121.519 273.823 121.874 273.982C122.238 274.131 122.551 274.355 122.812 274.654C123.073 274.953 123.209 275.349 123.218 275.844C123.218 276.283 123.097 276.675 122.854 277.02C122.611 277.365 122.266 277.636 121.818 277.832C121.379 278.028 120.861 278.126 120.264 278.126ZM132.013 273.954C132.013 274.243 131.994 274.505 131.957 274.738H126.063C126.109 275.354 126.338 275.849 126.749 276.222C127.159 276.595 127.663 276.782 128.261 276.782C129.119 276.782 129.726 276.423 130.081 275.704H131.803C131.569 276.413 131.145 276.997 130.529 277.454C129.922 277.902 129.166 278.126 128.261 278.126C127.523 278.126 126.861 277.963 126.273 277.636C125.694 277.3 125.237 276.833 124.901 276.236C124.574 275.629 124.411 274.929 124.411 274.136C124.411 273.343 124.569 272.647 124.887 272.05C125.213 271.443 125.666 270.977 126.245 270.65C126.833 270.323 127.505 270.16 128.261 270.16C128.989 270.16 129.637 270.319 130.207 270.636C130.776 270.953 131.219 271.401 131.537 271.98C131.854 272.549 132.013 273.207 132.013 273.954ZM130.347 273.45C130.337 272.862 130.127 272.391 129.717 272.036C129.306 271.681 128.797 271.504 128.191 271.504C127.64 271.504 127.169 271.681 126.777 272.036C126.385 272.381 126.151 272.853 126.077 273.45H130.347ZM133.051 274.136C133.051 273.343 133.21 272.647 133.527 272.05C133.854 271.443 134.302 270.977 134.871 270.65C135.441 270.323 136.094 270.16 136.831 270.16C137.765 270.16 138.535 270.384 139.141 270.832C139.757 271.271 140.173 271.901 140.387 272.722H138.665C138.525 272.339 138.301 272.041 137.993 271.826C137.685 271.611 137.298 271.504 136.831 271.504C136.178 271.504 135.655 271.737 135.263 272.204C134.881 272.661 134.689 273.305 134.689 274.136C134.689 274.967 134.881 275.615 135.263 276.082C135.655 276.549 136.178 276.782 136.831 276.782C137.755 276.782 138.367 276.376 138.665 275.564H140.387C140.163 276.348 139.743 276.973 139.127 277.44C138.511 277.897 137.746 278.126 136.831 278.126C136.094 278.126 135.441 277.963 134.871 277.636C134.302 277.3 133.854 276.833 133.527 276.236C133.21 275.629 133.051 274.929 133.051 274.136ZM143.84 271.588V275.858C143.84 276.147 143.905 276.357 144.036 276.488C144.176 276.609 144.409 276.67 144.736 276.67H145.716V278H144.456C143.737 278 143.186 277.832 142.804 277.496C142.421 277.16 142.23 276.614 142.23 275.858V271.588H141.32V270.286H142.23V268.368H143.84V270.286H145.716V271.588H143.84ZM154.257 273.954C154.257 274.243 154.238 274.505 154.201 274.738H148.307C148.353 275.354 148.582 275.849 148.993 276.222C149.403 276.595 149.907 276.782 150.505 276.782C151.363 276.782 151.97 276.423 152.325 275.704H154.047C153.813 276.413 153.389 276.997 152.773 277.454C152.166 277.902 151.41 278.126 150.505 278.126C149.767 278.126 149.105 277.963 148.517 277.636C147.938 277.3 147.481 276.833 147.145 276.236C146.818 275.629 146.655 274.929 146.655 274.136C146.655 273.343 146.813 272.647 147.131 272.05C147.457 271.443 147.91 270.977 148.489 270.65C149.077 270.323 149.749 270.16 150.505 270.16C151.233 270.16 151.881 270.319 152.451 270.636C153.02 270.953 153.463 271.401 153.781 271.98C154.098 272.549 154.257 273.207 154.257 273.954ZM152.591 273.45C152.581 272.862 152.371 272.391 151.961 272.036C151.55 271.681 151.041 271.504 150.435 271.504C149.884 271.504 149.413 271.681 149.021 272.036C148.629 272.381 148.395 272.853 148.321 273.45H152.591ZM157.689 271.588V275.858C157.689 276.147 157.755 276.357 157.885 276.488C158.025 276.609 158.259 276.67 158.585 276.67H159.565V278H158.305C157.587 278 157.036 277.832 156.653 277.496C156.271 277.16 156.079 276.614 156.079 275.858V271.588H155.169V270.286H156.079V268.368H157.689V270.286H159.565V271.588H157.689ZM168.022 270.286V278H166.426V277.09C166.174 277.407 165.843 277.659 165.432 277.846C165.031 278.023 164.602 278.112 164.144 278.112C163.538 278.112 162.992 277.986 162.506 277.734C162.03 277.482 161.652 277.109 161.372 276.614C161.102 276.119 160.966 275.522 160.966 274.822V270.286H162.548V274.584C162.548 275.275 162.721 275.807 163.066 276.18C163.412 276.544 163.883 276.726 164.48 276.726C165.078 276.726 165.549 276.544 165.894 276.18C166.249 275.807 166.426 275.275 166.426 274.584V270.286H168.022ZM171.724 271.406C171.957 271.014 172.265 270.711 172.648 270.496C173.04 270.272 173.502 270.16 174.034 270.16V271.812H173.628C173.003 271.812 172.527 271.971 172.2 272.288C171.883 272.605 171.724 273.156 171.724 273.94V278H170.128V270.286H171.724V271.406ZM178.606 274.108C178.606 273.333 178.765 272.647 179.082 272.05C179.409 271.453 179.847 270.991 180.398 270.664C180.958 270.328 181.574 270.16 182.246 270.16C182.853 270.16 183.38 270.281 183.828 270.524C184.285 270.757 184.649 271.051 184.92 271.406V270.286H186.53V278H184.92V276.852C184.649 277.216 184.281 277.519 183.814 277.762C183.347 278.005 182.815 278.126 182.218 278.126C181.555 278.126 180.949 277.958 180.398 277.622C179.847 277.277 179.409 276.801 179.082 276.194C178.765 275.578 178.606 274.883 178.606 274.108ZM184.92 274.136C184.92 273.604 184.808 273.142 184.584 272.75C184.369 272.358 184.085 272.059 183.73 271.854C183.375 271.649 182.993 271.546 182.582 271.546C182.171 271.546 181.789 271.649 181.434 271.854C181.079 272.05 180.79 272.344 180.566 272.736C180.351 273.119 180.244 273.576 180.244 274.108C180.244 274.64 180.351 275.107 180.566 275.508C180.79 275.909 181.079 276.217 181.434 276.432C181.798 276.637 182.181 276.74 182.582 276.74C182.993 276.74 183.375 276.637 183.73 276.432C184.085 276.227 184.369 275.928 184.584 275.536C184.808 275.135 184.92 274.668 184.92 274.136ZM188.094 274.108C188.094 273.333 188.253 272.647 188.57 272.05C188.897 271.453 189.336 270.991 189.886 270.664C190.446 270.328 191.067 270.16 191.748 270.16C192.252 270.16 192.747 270.272 193.232 270.496C193.727 270.711 194.119 271 194.408 271.364V267.64H196.018V278H194.408V276.838C194.147 277.211 193.783 277.519 193.316 277.762C192.859 278.005 192.332 278.126 191.734 278.126C191.062 278.126 190.446 277.958 189.886 277.622C189.336 277.277 188.897 276.801 188.57 276.194C188.253 275.578 188.094 274.883 188.094 274.108ZM194.408 274.136C194.408 273.604 194.296 273.142 194.072 272.75C193.858 272.358 193.573 272.059 193.218 271.854C192.864 271.649 192.481 271.546 192.07 271.546C191.66 271.546 191.277 271.649 190.922 271.854C190.568 272.05 190.278 272.344 190.054 272.736C189.84 273.119 189.732 273.576 189.732 274.108C189.732 274.64 189.84 275.107 190.054 275.508C190.278 275.909 190.568 276.217 190.922 276.432C191.286 276.637 191.669 276.74 192.07 276.74C192.481 276.74 192.864 276.637 193.218 276.432C193.573 276.227 193.858 275.928 194.072 275.536C194.296 275.135 194.408 274.668 194.408 274.136ZM198.926 269.264C198.637 269.264 198.394 269.166 198.198 268.97C198.002 268.774 197.904 268.531 197.904 268.242C197.904 267.953 198.002 267.71 198.198 267.514C198.394 267.318 198.637 267.22 198.926 267.22C199.206 267.22 199.444 267.318 199.64 267.514C199.836 267.71 199.934 267.953 199.934 268.242C199.934 268.531 199.836 268.774 199.64 268.97C199.444 269.166 199.206 269.264 198.926 269.264ZM199.71 270.286V278H198.114V270.286H199.71ZM203.402 271.42C203.673 271.065 204.041 270.767 204.508 270.524C204.975 270.281 205.502 270.16 206.09 270.16C206.762 270.16 207.373 270.328 207.924 270.664C208.484 270.991 208.923 271.453 209.24 272.05C209.557 272.647 209.716 273.333 209.716 274.108C209.716 274.883 209.557 275.578 209.24 276.194C208.923 276.801 208.484 277.277 207.924 277.622C207.373 277.958 206.762 278.126 206.09 278.126C205.502 278.126 204.979 278.009 204.522 277.776C204.065 277.533 203.691 277.235 203.402 276.88V281.668H201.806V270.286H203.402V271.42ZM208.092 274.108C208.092 273.576 207.98 273.119 207.756 272.736C207.541 272.344 207.252 272.05 206.888 271.854C206.533 271.649 206.151 271.546 205.74 271.546C205.339 271.546 204.956 271.649 204.592 271.854C204.237 272.059 203.948 272.358 203.724 272.75C203.509 273.142 203.402 273.604 203.402 274.136C203.402 274.668 203.509 275.135 203.724 275.536C203.948 275.928 204.237 276.227 204.592 276.432C204.956 276.637 205.339 276.74 205.74 276.74C206.151 276.74 206.533 276.637 206.888 276.432C207.252 276.217 207.541 275.909 207.756 275.508C207.98 275.107 208.092 274.64 208.092 274.108ZM212.106 269.264C211.817 269.264 211.574 269.166 211.378 268.97C211.182 268.774 211.084 268.531 211.084 268.242C211.084 267.953 211.182 267.71 211.378 267.514C211.574 267.318 211.817 267.22 212.106 267.22C212.386 267.22 212.624 267.318 212.82 267.514C213.016 267.71 213.114 267.953 213.114 268.242C213.114 268.531 213.016 268.774 212.82 268.97C212.624 269.166 212.386 269.264 212.106 269.264ZM212.89 270.286V278H211.294V270.286H212.89ZM217.786 278.126C217.179 278.126 216.633 278.019 216.148 277.804C215.672 277.58 215.294 277.281 215.014 276.908C214.734 276.525 214.584 276.101 214.566 275.634H216.218C216.246 275.961 216.4 276.236 216.68 276.46C216.969 276.675 217.328 276.782 217.758 276.782C218.206 276.782 218.551 276.698 218.794 276.53C219.046 276.353 219.172 276.129 219.172 275.858C219.172 275.569 219.032 275.354 218.752 275.214C218.481 275.074 218.047 274.92 217.45 274.752C216.871 274.593 216.4 274.439 216.036 274.29C215.672 274.141 215.354 273.912 215.084 273.604C214.822 273.296 214.692 272.89 214.692 272.386C214.692 271.975 214.813 271.602 215.056 271.266C215.298 270.921 215.644 270.65 216.092 270.454C216.549 270.258 217.072 270.16 217.66 270.16C218.537 270.16 219.242 270.384 219.774 270.832C220.315 271.271 220.604 271.873 220.642 272.638H219.046C219.018 272.293 218.878 272.017 218.626 271.812C218.374 271.607 218.033 271.504 217.604 271.504C217.184 271.504 216.862 271.583 216.638 271.742C216.414 271.901 216.302 272.111 216.302 272.372C216.302 272.577 216.376 272.75 216.526 272.89C216.675 273.03 216.857 273.142 217.072 273.226C217.286 273.301 217.604 273.399 218.024 273.52C218.584 273.669 219.041 273.823 219.396 273.982C219.76 274.131 220.072 274.355 220.334 274.654C220.595 274.953 220.73 275.349 220.74 275.844C220.74 276.283 220.618 276.675 220.376 277.02C220.133 277.365 219.788 277.636 219.34 277.832C218.901 278.028 218.383 278.126 217.786 278.126ZM221.932 274.136C221.932 273.343 222.091 272.647 222.408 272.05C222.735 271.443 223.183 270.977 223.752 270.65C224.321 270.323 224.975 270.16 225.712 270.16C226.645 270.16 227.415 270.384 228.022 270.832C228.638 271.271 229.053 271.901 229.268 272.722H227.546C227.406 272.339 227.182 272.041 226.874 271.826C226.566 271.611 226.179 271.504 225.712 271.504C225.059 271.504 224.536 271.737 224.144 272.204C223.761 272.661 223.57 273.305 223.57 274.136C223.57 274.967 223.761 275.615 224.144 276.082C224.536 276.549 225.059 276.782 225.712 276.782C226.636 276.782 227.247 276.376 227.546 275.564H229.268C229.044 276.348 228.624 276.973 228.008 277.44C227.392 277.897 226.627 278.126 225.712 278.126C224.975 278.126 224.321 277.963 223.752 277.636C223.183 277.3 222.735 276.833 222.408 276.236C222.091 275.629 221.932 274.929 221.932 274.136ZM231.671 269.264C231.381 269.264 231.139 269.166 230.943 268.97C230.747 268.774 230.649 268.531 230.649 268.242C230.649 267.953 230.747 267.71 230.943 267.514C231.139 267.318 231.381 267.22 231.671 267.22C231.951 267.22 232.189 267.318 232.385 267.514C232.581 267.71 232.679 267.953 232.679 268.242C232.679 268.531 232.581 268.774 232.385 268.97C232.189 269.166 231.951 269.264 231.671 269.264ZM232.455 270.286V278H230.859V270.286H232.455ZM238.442 270.16C239.049 270.16 239.59 270.286 240.066 270.538C240.551 270.79 240.929 271.163 241.2 271.658C241.471 272.153 241.606 272.75 241.606 273.45V278H240.024V273.688C240.024 272.997 239.851 272.47 239.506 272.106C239.161 271.733 238.689 271.546 238.092 271.546C237.495 271.546 237.019 271.733 236.664 272.106C236.319 272.47 236.146 272.997 236.146 273.688V278H234.55V270.286H236.146V271.168C236.407 270.851 236.739 270.603 237.14 270.426C237.551 270.249 237.985 270.16 238.442 270.16ZM246.75 270.16C247.347 270.16 247.874 270.281 248.332 270.524C248.798 270.757 249.162 271.051 249.424 271.406V270.286H251.034V278.126C251.034 278.835 250.884 279.465 250.586 280.016C250.287 280.576 249.853 281.015 249.284 281.332C248.724 281.649 248.052 281.808 247.268 281.808C246.222 281.808 245.354 281.561 244.664 281.066C243.973 280.581 243.581 279.918 243.488 279.078H245.07C245.191 279.479 245.448 279.801 245.84 280.044C246.241 280.296 246.717 280.422 247.268 280.422C247.912 280.422 248.43 280.226 248.822 279.834C249.223 279.442 249.424 278.873 249.424 278.126V276.838C249.153 277.202 248.784 277.51 248.318 277.762C247.86 278.005 247.338 278.126 246.75 278.126C246.078 278.126 245.462 277.958 244.902 277.622C244.351 277.277 243.912 276.801 243.586 276.194C243.268 275.578 243.11 274.883 243.11 274.108C243.11 273.333 243.268 272.647 243.586 272.05C243.912 271.453 244.351 270.991 244.902 270.664C245.462 270.328 246.078 270.16 246.75 270.16ZM249.424 274.136C249.424 273.604 249.312 273.142 249.088 272.75C248.873 272.358 248.588 272.059 248.234 271.854C247.879 271.649 247.496 271.546 247.086 271.546C246.675 271.546 246.292 271.649 245.938 271.854C245.583 272.05 245.294 272.344 245.07 272.736C244.855 273.119 244.748 273.576 244.748 274.108C244.748 274.64 244.855 275.107 245.07 275.508C245.294 275.909 245.583 276.217 245.938 276.432C246.302 276.637 246.684 276.74 247.086 276.74C247.496 276.74 247.879 276.637 248.234 276.432C248.588 276.227 248.873 275.928 249.088 275.536C249.312 275.135 249.424 274.668 249.424 274.136ZM263.837 273.954C263.837 274.243 263.818 274.505 263.781 274.738H257.887C257.933 275.354 258.162 275.849 258.573 276.222C258.983 276.595 259.487 276.782 260.085 276.782C260.943 276.782 261.55 276.423 261.905 275.704H263.627C263.393 276.413 262.969 276.997 262.353 277.454C261.746 277.902 260.99 278.126 260.085 278.126C259.347 278.126 258.685 277.963 258.097 277.636C257.518 277.3 257.061 276.833 256.725 276.236C256.398 275.629 256.235 274.929 256.235 274.136C256.235 273.343 256.393 272.647 256.711 272.05C257.037 271.443 257.49 270.977 258.069 270.65C258.657 270.323 259.329 270.16 260.085 270.16C260.813 270.16 261.461 270.319 262.031 270.636C262.6 270.953 263.043 271.401 263.361 271.98C263.678 272.549 263.837 273.207 263.837 273.954ZM262.171 273.45C262.161 272.862 261.951 272.391 261.541 272.036C261.13 271.681 260.621 271.504 260.015 271.504C259.464 271.504 258.993 271.681 258.601 272.036C258.209 272.381 257.975 272.853 257.901 273.45H262.171ZM267.003 267.64V278H265.407V267.64H267.003ZM269.911 269.264C269.621 269.264 269.379 269.166 269.183 268.97C268.987 268.774 268.889 268.531 268.889 268.242C268.889 267.953 268.987 267.71 269.183 267.514C269.379 267.318 269.621 267.22 269.911 267.22C270.191 267.22 270.429 267.318 270.625 267.514C270.821 267.71 270.919 267.953 270.919 268.242C270.919 268.531 270.821 268.774 270.625 268.97C270.429 269.166 270.191 269.264 269.911 269.264ZM270.695 270.286V278H269.099V270.286H270.695ZM274.652 271.588V275.858C274.652 276.147 274.718 276.357 274.848 276.488C274.988 276.609 275.222 276.67 275.548 276.67H276.528V278H275.268C274.55 278 273.999 277.832 273.616 277.496C273.234 277.16 273.042 276.614 273.042 275.858V271.588H272.132V270.286H273.042V268.368H274.652V270.286H276.528V271.588H274.652ZM279.749 276.082L278.055 279.946H277.019L278.013 276.082H279.749Z" fill="#C6C6C6"/>
<defs>
<filter id="filter0_d" x="0" y="9" width="630" height="384" filterUnits="userSpaceOnUse" color-interpolation-filters="sRGB">
<feFlood flood-opacity="0" result="BackgroundImageFix"/>
<feColorMatrix in="SourceAlpha" type="matrix" values="0 0 0 0 0 0 0 0 0 0 0 0 0 0 0 0 0 0 127 0"/>
<feOffset dy="4"/>
<feGaussianBlur stdDeviation="25"/>
<feColorMatrix type="matrix" values="0 0 0 0 0 0 0 0 0 0 0 0 0 0 0 0 0 0 0.1 0"/>
<feBlend mode="normal" in2="BackgroundImageFix" result="effect1_dropShadow"/>
<feBlend mode="normal" in="SourceGraphic" in2="effect1_dropShadow" result="shape"/>
</filter>
<linearGradient id="paint0_linear" x1="330" y1="0" x2="330" y2="468" gradientUnits="userSpaceOnUse">
<stop stop-color="#AED3F5"/>
<stop offset="1" stop-color="#60FBC7"/>
</linearGradient>
</defs>
</svg>
